<?xml version="1.0" encoding="UTF-8" standalone="no"?>
<!DOCTYPE svg PUBLIC "-//W3C//DTD SVG 1.1//EN"
 "http://www.w3.org/Graphics/SVG/1.1/DTD/svg11.dtd">
<!-- Generated by graphviz version 5.0.0 (20220707.1540)
 -->
<!-- Title: dependencies Pages: 1 -->
<svg width="370pt" height="247pt"
 viewBox="0.00 0.00 370.00 246.80" xmlns="http://www.w3.org/2000/svg" xmlns:xlink="http://www.w3.org/1999/xlink">
<g id="graph0" class="graph" transform="scale(1 1) rotate(0) translate(4 242.8)">
<title>dependencies</title>
<polygon fill="white" stroke="transparent" points="-4,4 -4,-242.8 366,-242.8 366,4 -4,4"/>
<text text-anchor="middle" x="181" y="-8.2" font-family="sans-serif" font-size="14.00">dependencies</text>
<g id="clust1" class="cluster">
<title>cluster_UserModule</title>
<polygon fill="none" stroke="black" stroke-dasharray="1,5" points="8,-32.8 8,-230.8 354,-230.8 354,-32.8 8,-32.8"/>
</g>
<g id="clust6" class="cluster">
<title>cluster_UserModule_exports</title>
<polygon fill="none" stroke="black" points="16,-170.8 16,-222.8 346,-222.8 346,-170.8 16,-170.8"/>
</g>
<g id="clust2" class="cluster">
<title>cluster_UserModule_declarations</title>
<polygon fill="none" stroke="black" points="20,-40.8 20,-92.8 342,-92.8 342,-40.8 20,-40.8"/>
</g>
<!-- ProfileInfoComponent -->
<g id="node1" class="node">
<title>ProfileInfoComponent</title>
<polygon fill="#ffffb3" stroke="black" points="334.26,-84.8 191.74,-84.8 191.74,-48.8 334.26,-48.8 334.26,-84.8"/>
<text text-anchor="middle" x="263" y="-62.6" font-family="Times,serif" font-size="14.00">ProfileInfoComponent</text>
</g>
<!-- UserModule -->
<g id="node3" class="node">
<title>UserModule</title>
<polygon fill="#8dd3c7" stroke="black" points="144.99,-149.8 141.99,-153.8 120.99,-153.8 117.99,-149.8 59.01,-149.8 59.01,-113.8 144.99,-113.8 144.99,-149.8"/>
<text text-anchor="middle" x="102" y="-127.6" font-family="Times,serif" font-size="14.00">UserModule</text>
</g>
<!-- ProfileInfoComponent&#45;&gt;UserModule -->
<g id="edge1" class="edge">
<title>ProfileInfoComponent&#45;&gt;UserModule</title>
<path fill="none" stroke="black" d="M286.88,-84.82C286.88,-102.17 286.88,-125.8 286.88,-125.8 286.88,-125.8 155.35,-125.8 155.35,-125.8"/>
<polygon fill="black" stroke="black" points="155.35,-122.3 145.35,-125.8 155.35,-129.3 155.35,-122.3"/>
</g>
<!-- UserProfileComponent -->
<g id="node2" class="node">
<title>UserProfileComponent</title>
<polygon fill="#ffffb3" stroke="black" points="173.87,-84.8 28.13,-84.8 28.13,-48.8 173.87,-48.8 173.87,-84.8"/>
<text text-anchor="middle" x="101" y="-62.6" font-family="Times,serif" font-size="14.00">UserProfileComponent</text>
</g>
<!-- UserProfileComponent&#45;&gt;UserModule -->
<g id="edge2" class="edge">
<title>UserProfileComponent&#45;&gt;UserModule</title>
<path fill="none" stroke="black" d="M102,-84.91C102,-84.91 102,-103.79 102,-103.79"/>
<polygon fill="black" stroke="black" points="98.5,-103.79 102,-113.79 105.5,-103.79 98.5,-103.79"/>
</g>
<!-- ProfileInfoComponent  -->
<g id="node4" class="node">
<title>ProfileInfoComponent </title>
<polygon fill="#fb8072" stroke="black" points="338.26,-214.8 191.74,-214.8 191.74,-178.8 338.26,-178.8 338.26,-214.8"/>
<text text-anchor="middle" x="265" y="-192.6" font-family="Times,serif" font-size="14.00">ProfileInfoComponent </text>
</g>
<!-- UserModule&#45;&gt;ProfileInfoComponent  -->
<g id="edge3" class="edge">
<title>UserModule&#45;&gt;ProfileInfoComponent </title>
<path fill="none" stroke="black" stroke-dasharray="5,2" d="M145.09,-137.8C185.38,-137.8 239.37,-137.8 239.37,-137.8 239.37,-137.8 239.37,-168.78 239.37,-168.78"/>
<polygon fill="black" stroke="black" points="235.87,-168.78 239.37,-178.78 242.87,-168.78 235.87,-168.78"/>
</g>
<!-- UserProfileComponent  -->
<g id="node5" class="node">
<title>UserProfileComponent </title>
<polygon fill="#fb8072" stroke="black" points="173.87,-214.8 24.13,-214.8 24.13,-178.8 173.87,-178.8 173.87,-214.8"/>
<text text-anchor="middle" x="99" y="-192.6" font-family="Times,serif" font-size="14.00">UserProfileComponent </text>
</g>
<!-- UserModule&#45;&gt;UserProfileComponent  -->
<g id="edge4" class="edge">
<title>UserModule&#45;&gt;UserProfileComponent </title>
<path fill="none" stroke="black" stroke-dasharray="5,2" d="M102,-149.91C102,-149.91 102,-168.79 102,-168.79"/>
<polygon fill="black" stroke="black" points="98.5,-168.79 102,-178.79 105.5,-168.79 98.5,-168.79"/>
</g>
</g>
</svg>
