<?xml version="1.0" encoding="UTF-8" standalone="no"?>
<!DOCTYPE svg PUBLIC "-//W3C//DTD SVG 1.1//EN"
 "http://www.w3.org/Graphics/SVG/1.1/DTD/svg11.dtd">
<!-- Generated by graphviz version 5.0.0 (20220707.1540)
 -->
<!-- Title: dependencies Pages: 1 -->
<svg width="516pt" height="247pt"
 viewBox="0.00 0.00 516.00 246.80" xmlns="http://www.w3.org/2000/svg" xmlns:xlink="http://www.w3.org/1999/xlink">
<g id="graph0" class="graph" transform="scale(1 1) rotate(0) translate(4 242.8)">
<title>dependencies</title>
<polygon fill="white" stroke="transparent" points="-4,4 -4,-242.8 512,-242.8 512,4 -4,4"/>
<text text-anchor="middle" x="254" y="-8.2" font-family="sans-serif" font-size="14.00">dependencies</text>
<g id="clust1" class="cluster">
<title>cluster_AuthModule</title>
<polygon fill="none" stroke="black" stroke-dasharray="1,5" points="8,-32.8 8,-230.8 500,-230.8 500,-32.8 8,-32.8"/>
</g>
<g id="clust7" class="cluster">
<title>cluster_AuthModule_exports</title>
<polygon fill="none" stroke="black" points="16,-170.8 16,-222.8 492,-222.8 492,-170.8 16,-170.8"/>
</g>
<g id="clust2" class="cluster">
<title>cluster_AuthModule_declarations</title>
<polygon fill="none" stroke="black" points="21,-40.8 21,-92.8 487,-92.8 487,-40.8 21,-40.8"/>
</g>
<!-- LoginComponent -->
<g id="node1" class="node">
<title>LoginComponent</title>
<polygon fill="#ffffb3" stroke="black" points="479.27,-84.8 364.73,-84.8 364.73,-48.8 479.27,-48.8 479.27,-84.8"/>
<text text-anchor="middle" x="422" y="-62.6" font-family="Times,serif" font-size="14.00">LoginComponent</text>
</g>
<!-- AuthModule -->
<g id="node4" class="node">
<title>AuthModule</title>
<polygon fill="#8dd3c7" stroke="black" points="317.55,-149.8 314.55,-153.8 293.55,-153.8 290.55,-149.8 230.45,-149.8 230.45,-113.8 317.55,-113.8 317.55,-149.8"/>
<text text-anchor="middle" x="274" y="-127.6" font-family="Times,serif" font-size="14.00">AuthModule</text>
</g>
<!-- LoginComponent&#45;&gt;AuthModule -->
<g id="edge1" class="edge">
<title>LoginComponent&#45;&gt;AuthModule</title>
<path fill="none" stroke="black" d="M441.55,-84.82C441.55,-102.17 441.55,-125.8 441.55,-125.8 441.55,-125.8 327.58,-125.8 327.58,-125.8"/>
<polygon fill="black" stroke="black" points="327.58,-122.3 317.58,-125.8 327.58,-129.3 327.58,-122.3"/>
</g>
<!-- LoginFormComponent -->
<g id="node2" class="node">
<title>LoginFormComponent</title>
<polygon fill="#ffffb3" stroke="black" points="346.61,-84.8 201.39,-84.8 201.39,-48.8 346.61,-48.8 346.61,-84.8"/>
<text text-anchor="middle" x="274" y="-62.6" font-family="Times,serif" font-size="14.00">LoginFormComponent</text>
</g>
<!-- LoginFormComponent&#45;&gt;AuthModule -->
<g id="edge2" class="edge">
<title>LoginFormComponent&#45;&gt;AuthModule</title>
<path fill="none" stroke="black" d="M274,-84.91C274,-84.91 274,-103.79 274,-103.79"/>
<polygon fill="black" stroke="black" points="270.5,-103.79 274,-113.79 277.5,-103.79 270.5,-103.79"/>
</g>
<!-- SignUpFormComponent -->
<g id="node3" class="node">
<title>SignUpFormComponent</title>
<polygon fill="#ffffb3" stroke="black" points="183.46,-84.8 28.54,-84.8 28.54,-48.8 183.46,-48.8 183.46,-84.8"/>
<text text-anchor="middle" x="106" y="-62.6" font-family="Times,serif" font-size="14.00">SignUpFormComponent</text>
</g>
<!-- SignUpFormComponent&#45;&gt;AuthModule -->
<g id="edge3" class="edge">
<title>SignUpFormComponent&#45;&gt;AuthModule</title>
<path fill="none" stroke="black" d="M130.91,-84.82C130.91,-102.17 130.91,-125.8 130.91,-125.8 130.91,-125.8 220.29,-125.8 220.29,-125.8"/>
<polygon fill="black" stroke="black" points="220.29,-129.3 230.29,-125.8 220.29,-122.3 220.29,-129.3"/>
</g>
<!-- LoginComponent  -->
<g id="node5" class="node">
<title>LoginComponent </title>
<polygon fill="#fb8072" stroke="black" points="484.27,-214.8 365.73,-214.8 365.73,-178.8 484.27,-178.8 484.27,-214.8"/>
<text text-anchor="middle" x="425" y="-192.6" font-family="Times,serif" font-size="14.00">LoginComponent </text>
</g>
<!-- AuthModule&#45;&gt;LoginComponent  -->
<g id="edge4" class="edge">
<title>AuthModule&#45;&gt;LoginComponent </title>
<path fill="none" stroke="black" stroke-dasharray="5,2" d="M317.91,-137.8C355.54,-137.8 403.7,-137.8 403.7,-137.8 403.7,-137.8 403.7,-168.78 403.7,-168.78"/>
<polygon fill="black" stroke="black" points="400.2,-168.78 403.7,-178.78 407.2,-168.78 400.2,-168.78"/>
</g>
<!-- LoginFormComponent  -->
<g id="node6" class="node">
<title>LoginFormComponent </title>
<polygon fill="#fb8072" stroke="black" points="348.11,-214.8 199.89,-214.8 199.89,-178.8 348.11,-178.8 348.11,-214.8"/>
<text text-anchor="middle" x="274" y="-192.6" font-family="Times,serif" font-size="14.00">LoginFormComponent </text>
</g>
<!-- AuthModule&#45;&gt;LoginFormComponent  -->
<g id="edge5" class="edge">
<title>AuthModule&#45;&gt;LoginFormComponent </title>
<path fill="none" stroke="black" stroke-dasharray="5,2" d="M274,-149.91C274,-149.91 274,-168.79 274,-168.79"/>
<polygon fill="black" stroke="black" points="270.5,-168.79 274,-178.79 277.5,-168.79 270.5,-168.79"/>
</g>
<!-- SignUpFormComponent  -->
<g id="node7" class="node">
<title>SignUpFormComponent </title>
<polygon fill="#fb8072" stroke="black" points="181.96,-214.8 24.04,-214.8 24.04,-178.8 181.96,-178.8 181.96,-214.8"/>
<text text-anchor="middle" x="103" y="-192.6" font-family="Times,serif" font-size="14.00">SignUpFormComponent </text>
</g>
<!-- AuthModule&#45;&gt;SignUpFormComponent  -->
<g id="edge6" class="edge">
<title>AuthModule&#45;&gt;SignUpFormComponent </title>
<path fill="none" stroke="black" stroke-dasharray="5,2" d="M230.43,-137.8C173.18,-137.8 79.84,-137.8 79.84,-137.8 79.84,-137.8 79.84,-168.78 79.84,-168.78"/>
<polygon fill="black" stroke="black" points="76.34,-168.78 79.84,-178.78 83.34,-168.78 76.34,-168.78"/>
</g>
</g>
</svg>
