<?xml version="1.0" encoding="UTF-8" standalone="no"?>
<!DOCTYPE svg PUBLIC "-//W3C//DTD SVG 1.1//EN"
 "http://www.w3.org/Graphics/SVG/1.1/DTD/svg11.dtd">
<!-- Generated by graphviz version 5.0.0 (20220707.1540)
 -->
<!-- Title: dependencies Pages: 1 -->
<svg width="560pt" height="247pt"
 viewBox="0.00 0.00 560.00 246.80" xmlns="http://www.w3.org/2000/svg" xmlns:xlink="http://www.w3.org/1999/xlink">
<g id="graph0" class="graph" transform="scale(1 1) rotate(0) translate(4 242.8)">
<title>dependencies</title>
<polygon fill="white" stroke="transparent" points="-4,4 -4,-242.8 556,-242.8 556,4 -4,4"/>
<text text-anchor="middle" x="276" y="-8.2" font-family="sans-serif" font-size="14.00">dependencies</text>
<g id="clust1" class="cluster">
<title>cluster_LegalModule</title>
<polygon fill="none" stroke="black" stroke-dasharray="1,5" points="8,-32.8 8,-230.8 544,-230.8 544,-32.8 8,-32.8"/>
</g>
<g id="clust7" class="cluster">
<title>cluster_LegalModule_exports</title>
<polygon fill="none" stroke="black" points="16,-170.8 16,-222.8 536,-222.8 536,-170.8 16,-170.8"/>
</g>
<g id="clust2" class="cluster">
<title>cluster_LegalModule_declarations</title>
<polygon fill="none" stroke="black" points="22,-40.8 22,-92.8 531,-92.8 531,-40.8 22,-40.8"/>
</g>
<!-- CookiesPopupComponent -->
<g id="node1" class="node">
<title>CookiesPopupComponent</title>
<polygon fill="#ffffb3" stroke="black" points="522.51,-84.8 359.49,-84.8 359.49,-48.8 522.51,-48.8 522.51,-84.8"/>
<text text-anchor="middle" x="441" y="-62.6" font-family="Times,serif" font-size="14.00">CookiesPopupComponent</text>
</g>
<!-- LegalModule -->
<g id="node4" class="node">
<title>LegalModule</title>
<polygon fill="#8dd3c7" stroke="black" points="302.92,-149.8 299.92,-153.8 278.92,-153.8 275.92,-149.8 211.08,-149.8 211.08,-113.8 302.92,-113.8 302.92,-149.8"/>
<text text-anchor="middle" x="257" y="-127.6" font-family="Times,serif" font-size="14.00">LegalModule</text>
</g>
<!-- CookiesPopupComponent&#45;&gt;LegalModule -->
<g id="edge1" class="edge">
<title>CookiesPopupComponent&#45;&gt;LegalModule</title>
<path fill="none" stroke="black" d="M468.92,-84.82C468.92,-102.17 468.92,-125.8 468.92,-125.8 468.92,-125.8 312.72,-125.8 312.72,-125.8"/>
<polygon fill="black" stroke="black" points="312.72,-122.3 302.72,-125.8 312.72,-129.3 312.72,-122.3"/>
</g>
<!-- CookiesPrivacyComponent -->
<g id="node2" class="node">
<title>CookiesPrivacyComponent</title>
<polygon fill="#ffffb3" stroke="black" points="341.99,-84.8 172.01,-84.8 172.01,-48.8 341.99,-48.8 341.99,-84.8"/>
<text text-anchor="middle" x="257" y="-62.6" font-family="Times,serif" font-size="14.00">CookiesPrivacyComponent</text>
</g>
<!-- CookiesPrivacyComponent&#45;&gt;LegalModule -->
<g id="edge2" class="edge">
<title>CookiesPrivacyComponent&#45;&gt;LegalModule</title>
<path fill="none" stroke="black" d="M257,-84.91C257,-84.91 257,-103.79 257,-103.79"/>
<polygon fill="black" stroke="black" points="253.5,-103.79 257,-113.79 260.5,-103.79 253.5,-103.79"/>
</g>
<!-- PrivacyComponent -->
<g id="node3" class="node">
<title>PrivacyComponent</title>
<polygon fill="#ffffb3" stroke="black" points="154.1,-84.8 29.9,-84.8 29.9,-48.8 154.1,-48.8 154.1,-84.8"/>
<text text-anchor="middle" x="92" y="-62.6" font-family="Times,serif" font-size="14.00">PrivacyComponent</text>
</g>
<!-- PrivacyComponent&#45;&gt;LegalModule -->
<g id="edge3" class="edge">
<title>PrivacyComponent&#45;&gt;LegalModule</title>
<path fill="none" stroke="black" d="M111.18,-84.82C111.18,-102.17 111.18,-125.8 111.18,-125.8 111.18,-125.8 201.26,-125.8 201.26,-125.8"/>
<polygon fill="black" stroke="black" points="201.26,-129.3 211.26,-125.8 201.26,-122.3 201.26,-129.3"/>
</g>
<!-- CookiesPopupComponent  -->
<g id="node5" class="node">
<title>CookiesPopupComponent </title>
<polygon fill="#fb8072" stroke="black" points="528.01,-214.8 361.99,-214.8 361.99,-178.8 528.01,-178.8 528.01,-214.8"/>
<text text-anchor="middle" x="445" y="-192.6" font-family="Times,serif" font-size="14.00">CookiesPopupComponent </text>
</g>
<!-- LegalModule&#45;&gt;CookiesPopupComponent  -->
<g id="edge4" class="edge">
<title>LegalModule&#45;&gt;CookiesPopupComponent </title>
<path fill="none" stroke="black" stroke-dasharray="5,2" d="M302.8,-137.8C349.56,-137.8 415.33,-137.8 415.33,-137.8 415.33,-137.8 415.33,-168.78 415.33,-168.78"/>
<polygon fill="black" stroke="black" points="411.83,-168.78 415.33,-178.78 418.83,-168.78 411.83,-168.78"/>
</g>
<!-- CookiesPrivacyComponent  -->
<g id="node6" class="node">
<title>CookiesPrivacyComponent </title>
<polygon fill="#fb8072" stroke="black" points="343.99,-214.8 170.01,-214.8 170.01,-178.8 343.99,-178.8 343.99,-214.8"/>
<text text-anchor="middle" x="257" y="-192.6" font-family="Times,serif" font-size="14.00">CookiesPrivacyComponent </text>
</g>
<!-- LegalModule&#45;&gt;CookiesPrivacyComponent  -->
<g id="edge5" class="edge">
<title>LegalModule&#45;&gt;CookiesPrivacyComponent </title>
<path fill="none" stroke="black" stroke-dasharray="5,2" d="M257,-149.91C257,-149.91 257,-168.79 257,-168.79"/>
<polygon fill="black" stroke="black" points="253.5,-168.79 257,-178.79 260.5,-168.79 253.5,-168.79"/>
</g>
<!-- PrivacyComponent  -->
<g id="node7" class="node">
<title>PrivacyComponent </title>
<polygon fill="#fb8072" stroke="black" points="151.6,-214.8 24.4,-214.8 24.4,-178.8 151.6,-178.8 151.6,-214.8"/>
<text text-anchor="middle" x="88" y="-192.6" font-family="Times,serif" font-size="14.00">PrivacyComponent </text>
</g>
<!-- LegalModule&#45;&gt;PrivacyComponent  -->
<g id="edge6" class="edge">
<title>LegalModule&#45;&gt;PrivacyComponent </title>
<path fill="none" stroke="black" stroke-dasharray="5,2" d="M210.92,-137.8C155.71,-137.8 70.57,-137.8 70.57,-137.8 70.57,-137.8 70.57,-168.78 70.57,-168.78"/>
<polygon fill="black" stroke="black" points="67.07,-168.78 70.57,-178.78 74.07,-168.78 67.07,-168.78"/>
</g>
</g>
</svg>
