<?xml version="1.0" encoding="UTF-8" standalone="no"?>
<!DOCTYPE svg PUBLIC "-//W3C//DTD SVG 1.1//EN"
 "http://www.w3.org/Graphics/SVG/1.1/DTD/svg11.dtd">
<!-- Generated by graphviz version 5.0.0 (20220707.1540)
 -->
<!-- Title: dependencies Pages: 1 -->
<svg width="1232pt" height="247pt"
 viewBox="0.00 0.00 1232.00 246.80" xmlns="http://www.w3.org/2000/svg" xmlns:xlink="http://www.w3.org/1999/xlink">
<g id="graph0" class="graph" transform="scale(1 1) rotate(0) translate(4 242.8)">
<title>dependencies</title>
<polygon fill="white" stroke="transparent" points="-4,4 -4,-242.8 1228,-242.8 1228,4 -4,4"/>
<text text-anchor="middle" x="612" y="-8.2" font-family="sans-serif" font-size="14.00">dependencies</text>
<g id="clust1" class="cluster">
<title>cluster_AppModule</title>
<polygon fill="none" stroke="black" stroke-dasharray="1,5" points="8,-32.8 8,-230.8 1216,-230.8 1216,-32.8 8,-32.8"/>
</g>
<g id="clust7" class="cluster">
<title>cluster_AppModule_bootstrap</title>
<polygon fill="none" stroke="black" points="555,-170.8 555,-222.8 679,-222.8 679,-170.8 555,-170.8"/>
</g>
<g id="clust5" class="cluster">
<title>cluster_AppModule_imports</title>
<polygon fill="none" stroke="black" points="269,-40.8 269,-92.8 1208,-92.8 1208,-40.8 269,-40.8"/>
</g>
<g id="clust2" class="cluster">
<title>cluster_AppModule_declarations</title>
<polygon fill="none" stroke="black" points="16,-40.8 16,-92.8 261,-92.8 261,-40.8 16,-40.8"/>
</g>
<!-- AppComponent -->
<g id="node1" class="node">
<title>AppComponent</title>
<polygon fill="#ffffb3" stroke="black" points="252.94,-84.8 147.06,-84.8 147.06,-48.8 252.94,-48.8 252.94,-84.8"/>
<text text-anchor="middle" x="200" y="-62.6" font-family="Times,serif" font-size="14.00">AppComponent</text>
</g>
<!-- AppModule -->
<g id="node3" class="node">
<title>AppModule</title>
<polygon fill="#8dd3c7" stroke="black" points="658.66,-149.8 655.66,-153.8 634.66,-153.8 631.66,-149.8 575.34,-149.8 575.34,-113.8 658.66,-113.8 658.66,-149.8"/>
<text text-anchor="middle" x="617" y="-127.6" font-family="Times,serif" font-size="14.00">AppModule</text>
</g>
<!-- AppComponent&#45;&gt;AppModule -->
<g id="edge1" class="edge">
<title>AppComponent&#45;&gt;AppModule</title>
<path fill="none" stroke="black" d="M200,-84.93C200,-105.37 200,-135.8 200,-135.8 200,-135.8 565.11,-135.8 565.11,-135.8"/>
<polygon fill="black" stroke="black" points="565.11,-139.3 575.11,-135.8 565.11,-132.3 565.11,-139.3"/>
</g>
<!-- CartComponent -->
<g id="node2" class="node">
<title>CartComponent</title>
<polygon fill="#ffffb3" stroke="black" points="129.94,-84.8 24.06,-84.8 24.06,-48.8 129.94,-48.8 129.94,-84.8"/>
<text text-anchor="middle" x="77" y="-62.6" font-family="Times,serif" font-size="14.00">CartComponent</text>
</g>
<!-- CartComponent&#45;&gt;AppModule -->
<g id="edge2" class="edge">
<title>CartComponent&#45;&gt;AppModule</title>
<path fill="none" stroke="black" d="M77,-84.81C77,-107.29 77,-142.8 77,-142.8 77,-142.8 565.08,-142.8 565.08,-142.8"/>
<polygon fill="black" stroke="black" points="565.08,-146.3 575.08,-142.8 565.08,-139.3 565.08,-146.3"/>
</g>
<!-- AppComponent  -->
<g id="node12" class="node">
<title>AppComponent </title>
<polygon fill="#80b1d3" stroke="black" points="671.44,-214.8 562.56,-214.8 562.56,-178.8 671.44,-178.8 671.44,-214.8"/>
<text text-anchor="middle" x="617" y="-192.6" font-family="Times,serif" font-size="14.00">AppComponent </text>
</g>
<!-- AppModule&#45;&gt;AppComponent  -->
<g id="edge11" class="edge">
<title>AppModule&#45;&gt;AppComponent </title>
<path fill="none" stroke="black" stroke-dasharray="1,5" d="M617,-149.91C617,-149.91 617,-168.79 617,-168.79"/>
<polygon fill="black" stroke="black" points="613.5,-168.79 617,-178.79 620.5,-168.79 613.5,-168.79"/>
</g>
<!-- AppRoutingModule -->
<g id="node4" class="node">
<title>AppRoutingModule</title>
<polygon fill="#8dd3c7" stroke="black" points="1200.28,-84.8 1197.28,-88.8 1176.28,-88.8 1173.28,-84.8 1071.72,-84.8 1071.72,-48.8 1200.28,-48.8 1200.28,-84.8"/>
<text text-anchor="middle" x="1136" y="-62.6" font-family="Times,serif" font-size="14.00">AppRoutingModule</text>
</g>
<!-- AppRoutingModule&#45;&gt;AppModule -->
<g id="edge3" class="edge">
<title>AppRoutingModule&#45;&gt;AppModule</title>
<path fill="none" stroke="black" d="M1136,-84.81C1136,-107.29 1136,-142.8 1136,-142.8 1136,-142.8 669.03,-142.8 669.03,-142.8"/>
<polygon fill="black" stroke="black" points="669.03,-139.3 659.03,-142.8 669.03,-146.3 669.03,-139.3"/>
</g>
<!-- AuthModule -->
<g id="node5" class="node">
<title>AuthModule</title>
<polygon fill="#8dd3c7" stroke="black" points="1053.55,-84.8 1050.55,-88.8 1029.55,-88.8 1026.55,-84.8 966.45,-84.8 966.45,-48.8 1053.55,-48.8 1053.55,-84.8"/>
<text text-anchor="middle" x="1010" y="-62.6" font-family="Times,serif" font-size="14.00">AuthModule</text>
</g>
<!-- AuthModule&#45;&gt;AppModule -->
<g id="edge4" class="edge">
<title>AuthModule&#45;&gt;AppModule</title>
<path fill="none" stroke="black" d="M1010,-84.93C1010,-105.37 1010,-135.8 1010,-135.8 1010,-135.8 668.69,-135.8 668.69,-135.8"/>
<polygon fill="black" stroke="black" points="668.69,-132.3 658.69,-135.8 668.69,-139.3 668.69,-132.3"/>
</g>
<!-- BlogModule -->
<g id="node6" class="node">
<title>BlogModule</title>
<polygon fill="#8dd3c7" stroke="black" points="948.28,-84.8 945.28,-88.8 924.28,-88.8 921.28,-84.8 861.72,-84.8 861.72,-48.8 948.28,-48.8 948.28,-84.8"/>
<text text-anchor="middle" x="905" y="-62.6" font-family="Times,serif" font-size="14.00">BlogModule</text>
</g>
<!-- BlogModule&#45;&gt;AppModule -->
<g id="edge5" class="edge">
<title>BlogModule&#45;&gt;AppModule</title>
<path fill="none" stroke="black" d="M905,-85.07C905,-103.36 905,-128.8 905,-128.8 905,-128.8 668.88,-128.8 668.88,-128.8"/>
<polygon fill="black" stroke="black" points="668.88,-125.3 658.88,-128.8 668.88,-132.3 668.88,-125.3"/>
</g>
<!-- LayoutModule -->
<g id="node7" class="node">
<title>LayoutModule</title>
<polygon fill="#8dd3c7" stroke="black" points="843.71,-84.8 840.71,-88.8 819.71,-88.8 816.71,-84.8 744.29,-84.8 744.29,-48.8 843.71,-48.8 843.71,-84.8"/>
<text text-anchor="middle" x="794" y="-62.6" font-family="Times,serif" font-size="14.00">LayoutModule</text>
</g>
<!-- LayoutModule&#45;&gt;AppModule -->
<g id="edge6" class="edge">
<title>LayoutModule&#45;&gt;AppModule</title>
<path fill="none" stroke="black" d="M794,-84.81C794,-100.85 794,-121.8 794,-121.8 794,-121.8 668.95,-121.8 668.95,-121.8"/>
<polygon fill="black" stroke="black" points="668.95,-118.3 658.95,-121.8 668.95,-125.3 668.95,-118.3"/>
</g>
<!-- LegalModule -->
<g id="node8" class="node">
<title>LegalModule</title>
<polygon fill="#8dd3c7" stroke="black" points="726.92,-84.8 723.92,-88.8 702.92,-88.8 699.92,-84.8 635.08,-84.8 635.08,-48.8 726.92,-48.8 726.92,-84.8"/>
<text text-anchor="middle" x="681" y="-62.6" font-family="Times,serif" font-size="14.00">LegalModule</text>
</g>
<!-- LegalModule&#45;&gt;AppModule -->
<g id="edge7" class="edge">
<title>LegalModule&#45;&gt;AppModule</title>
<path fill="none" stroke="black" d="M647.06,-84.91C647.06,-84.91 647.06,-103.79 647.06,-103.79"/>
<polygon fill="black" stroke="black" points="643.56,-103.79 647.06,-113.79 650.56,-103.79 643.56,-103.79"/>
</g>
<!-- MiscelaneusModule -->
<g id="node9" class="node">
<title>MiscelaneusModule</title>
<polygon fill="#8dd3c7" stroke="black" points="617.53,-84.8 614.53,-88.8 593.53,-88.8 590.53,-84.8 488.47,-84.8 488.47,-48.8 617.53,-48.8 617.53,-84.8"/>
<text text-anchor="middle" x="553" y="-62.6" font-family="Times,serif" font-size="14.00">MiscelaneusModule</text>
</g>
<!-- MiscelaneusModule&#45;&gt;AppModule -->
<g id="edge8" class="edge">
<title>MiscelaneusModule&#45;&gt;AppModule</title>
<path fill="none" stroke="black" d="M596.47,-84.91C596.47,-84.91 596.47,-103.79 596.47,-103.79"/>
<polygon fill="black" stroke="black" points="592.97,-103.79 596.47,-113.79 599.97,-103.79 592.97,-103.79"/>
</g>
<!-- StoreModule -->
<g id="node10" class="node">
<title>StoreModule</title>
<polygon fill="#8dd3c7" stroke="black" points="470.6,-84.8 467.6,-88.8 446.6,-88.8 443.6,-84.8 381.4,-84.8 381.4,-48.8 470.6,-48.8 470.6,-84.8"/>
<text text-anchor="middle" x="426" y="-62.6" font-family="Times,serif" font-size="14.00">StoreModule</text>
</g>
<!-- StoreModule&#45;&gt;AppModule -->
<g id="edge9" class="edge">
<title>StoreModule&#45;&gt;AppModule</title>
<path fill="none" stroke="black" d="M426,-84.81C426,-100.85 426,-121.8 426,-121.8 426,-121.8 565.08,-121.8 565.08,-121.8"/>
<polygon fill="black" stroke="black" points="565.08,-125.3 575.08,-121.8 565.08,-118.3 565.08,-125.3"/>
</g>
<!-- UserModule -->
<g id="node11" class="node">
<title>UserModule</title>
<polygon fill="#8dd3c7" stroke="black" points="362.99,-84.8 359.99,-88.8 338.99,-88.8 335.99,-84.8 277.01,-84.8 277.01,-48.8 362.99,-48.8 362.99,-84.8"/>
<text text-anchor="middle" x="320" y="-62.6" font-family="Times,serif" font-size="14.00">UserModule</text>
</g>
<!-- UserModule&#45;&gt;AppModule -->
<g id="edge10" class="edge">
<title>UserModule&#45;&gt;AppModule</title>
<path fill="none" stroke="black" d="M320,-85.07C320,-103.36 320,-128.8 320,-128.8 320,-128.8 565.08,-128.8 565.08,-128.8"/>
<polygon fill="black" stroke="black" points="565.08,-132.3 575.08,-128.8 565.08,-125.3 565.08,-132.3"/>
</g>
</g>
</svg>
