<?xml version="1.0" encoding="UTF-8" standalone="no"?>
<!DOCTYPE svg PUBLIC "-//W3C//DTD SVG 1.1//EN"
 "http://www.w3.org/Graphics/SVG/1.1/DTD/svg11.dtd">
<!-- Generated by graphviz version 5.0.0 (20220707.1540)
 -->
<!-- Title: dependencies Pages: 1 -->
<svg width="465pt" height="247pt"
 viewBox="0.00 0.00 465.00 246.80" xmlns="http://www.w3.org/2000/svg" xmlns:xlink="http://www.w3.org/1999/xlink">
<g id="graph0" class="graph" transform="scale(1 1) rotate(0) translate(4 242.8)">
<title>dependencies</title>
<polygon fill="white" stroke="transparent" points="-4,4 -4,-242.8 461,-242.8 461,4 -4,4"/>
<text text-anchor="middle" x="228.5" y="-8.2" font-family="sans-serif" font-size="14.00">dependencies</text>
<g id="clust1" class="cluster">
<title>cluster_LayoutModule</title>
<polygon fill="none" stroke="black" stroke-dasharray="1,5" points="8,-32.8 8,-230.8 449,-230.8 449,-32.8 8,-32.8"/>
</g>
<g id="clust2" class="cluster">
<title>cluster_LayoutModule_declarations</title>
<polygon fill="none" stroke="black" points="22,-40.8 22,-92.8 436,-92.8 436,-40.8 22,-40.8"/>
</g>
<g id="clust7" class="cluster">
<title>cluster_LayoutModule_exports</title>
<polygon fill="none" stroke="black" points="16,-170.8 16,-222.8 441,-222.8 441,-170.8 16,-170.8"/>
</g>
<!-- FooterComponent -->
<g id="node1" class="node">
<title>FooterComponent</title>
<polygon fill="#ffffb3" stroke="black" points="427.88,-84.8 310.12,-84.8 310.12,-48.8 427.88,-48.8 427.88,-84.8"/>
<text text-anchor="middle" x="369" y="-62.6" font-family="Times,serif" font-size="14.00">FooterComponent</text>
</g>
<!-- LayoutModule -->
<g id="node4" class="node">
<title>LayoutModule</title>
<polygon fill="#8dd3c7" stroke="black" points="280.71,-149.8 277.71,-153.8 256.71,-153.8 253.71,-149.8 181.29,-149.8 181.29,-113.8 280.71,-113.8 280.71,-149.8"/>
<text text-anchor="middle" x="231" y="-127.6" font-family="Times,serif" font-size="14.00">LayoutModule</text>
</g>
<!-- FooterComponent&#45;&gt;LayoutModule -->
<g id="edge1" class="edge">
<title>FooterComponent&#45;&gt;LayoutModule</title>
<path fill="none" stroke="black" d="M389.06,-84.82C389.06,-102.17 389.06,-125.8 389.06,-125.8 389.06,-125.8 291.01,-125.8 291.01,-125.8"/>
<polygon fill="black" stroke="black" points="291.01,-122.3 281.01,-125.8 291.01,-129.3 291.01,-122.3"/>
</g>
<!-- HeaderComponent -->
<g id="node2" class="node">
<title>HeaderComponent</title>
<polygon fill="#ffffb3" stroke="black" points="291.75,-84.8 170.25,-84.8 170.25,-48.8 291.75,-48.8 291.75,-84.8"/>
<text text-anchor="middle" x="231" y="-62.6" font-family="Times,serif" font-size="14.00">HeaderComponent</text>
</g>
<!-- HeaderComponent&#45;&gt;LayoutModule -->
<g id="edge2" class="edge">
<title>HeaderComponent&#45;&gt;LayoutModule</title>
<path fill="none" stroke="black" d="M231,-84.91C231,-84.91 231,-103.79 231,-103.79"/>
<polygon fill="black" stroke="black" points="227.5,-103.79 231,-113.79 234.5,-103.79 227.5,-103.79"/>
</g>
<!-- NavbarComponent -->
<g id="node3" class="node">
<title>NavbarComponent</title>
<polygon fill="#ffffb3" stroke="black" points="152.03,-84.8 29.97,-84.8 29.97,-48.8 152.03,-48.8 152.03,-84.8"/>
<text text-anchor="middle" x="91" y="-62.6" font-family="Times,serif" font-size="14.00">NavbarComponent</text>
</g>
<!-- NavbarComponent&#45;&gt;LayoutModule -->
<g id="edge3" class="edge">
<title>NavbarComponent&#45;&gt;LayoutModule</title>
<path fill="none" stroke="black" d="M109.92,-84.82C109.92,-102.17 109.92,-125.8 109.92,-125.8 109.92,-125.8 171.05,-125.8 171.05,-125.8"/>
<polygon fill="black" stroke="black" points="171.05,-129.3 181.05,-125.8 171.05,-122.3 171.05,-129.3"/>
</g>
<!-- FooterComponent  -->
<g id="node5" class="node">
<title>FooterComponent </title>
<polygon fill="#fb8072" stroke="black" points="432.88,-214.8 311.12,-214.8 311.12,-178.8 432.88,-178.8 432.88,-214.8"/>
<text text-anchor="middle" x="372" y="-192.6" font-family="Times,serif" font-size="14.00">FooterComponent </text>
</g>
<!-- LayoutModule&#45;&gt;FooterComponent  -->
<g id="edge4" class="edge">
<title>LayoutModule&#45;&gt;FooterComponent </title>
<path fill="none" stroke="black" stroke-dasharray="5,2" d="M280.86,-137.8C313.52,-137.8 350.19,-137.8 350.19,-137.8 350.19,-137.8 350.19,-168.78 350.19,-168.78"/>
<polygon fill="black" stroke="black" points="346.69,-168.78 350.19,-178.78 353.69,-168.78 346.69,-168.78"/>
</g>
<!-- HeaderComponent  -->
<g id="node6" class="node">
<title>HeaderComponent </title>
<polygon fill="#fb8072" stroke="black" points="293.75,-214.8 168.25,-214.8 168.25,-178.8 293.75,-178.8 293.75,-214.8"/>
<text text-anchor="middle" x="231" y="-192.6" font-family="Times,serif" font-size="14.00">HeaderComponent </text>
</g>
<!-- LayoutModule&#45;&gt;HeaderComponent  -->
<g id="edge5" class="edge">
<title>LayoutModule&#45;&gt;HeaderComponent </title>
<path fill="none" stroke="black" stroke-dasharray="5,2" d="M231,-149.91C231,-149.91 231,-168.79 231,-168.79"/>
<polygon fill="black" stroke="black" points="227.5,-168.79 231,-178.79 234.5,-168.79 227.5,-168.79"/>
</g>
<!-- NavbarComponent  -->
<g id="node7" class="node">
<title>NavbarComponent </title>
<polygon fill="#fb8072" stroke="black" points="150.03,-214.8 23.97,-214.8 23.97,-178.8 150.03,-178.8 150.03,-214.8"/>
<text text-anchor="middle" x="87" y="-192.6" font-family="Times,serif" font-size="14.00">NavbarComponent </text>
</g>
<!-- LayoutModule&#45;&gt;NavbarComponent  -->
<g id="edge6" class="edge">
<title>LayoutModule&#45;&gt;NavbarComponent </title>
<path fill="none" stroke="black" stroke-dasharray="5,2" d="M181.33,-137.8C133.97,-137.8 69.83,-137.8 69.83,-137.8 69.83,-137.8 69.83,-168.78 69.83,-168.78"/>
<polygon fill="black" stroke="black" points="66.33,-168.78 69.83,-178.78 73.33,-168.78 66.33,-168.78"/>
</g>
</g>
</svg>
