<?xml version="1.0" encoding="UTF-8" standalone="no"?>
<!DOCTYPE svg PUBLIC "-//W3C//DTD SVG 1.1//EN"
 "http://www.w3.org/Graphics/SVG/1.1/DTD/svg11.dtd">
<!-- Generated by graphviz version 5.0.0 (20220707.1540)
 -->
<!-- Title: dependencies Pages: 1 -->
<svg width="1101pt" height="247pt"
 viewBox="0.00 0.00 1101.00 246.80" xmlns="http://www.w3.org/2000/svg" xmlns:xlink="http://www.w3.org/1999/xlink">
<g id="graph0" class="graph" transform="scale(1 1) rotate(0) translate(4 242.8)">
<title>dependencies</title>
<polygon fill="white" stroke="transparent" points="-4,4 -4,-242.8 1097,-242.8 1097,4 -4,4"/>
<text text-anchor="middle" x="546.5" y="-8.2" font-family="sans-serif" font-size="14.00">dependencies</text>
<g id="clust1" class="cluster">
<title>cluster_MiscelaneusModule</title>
<polygon fill="none" stroke="black" stroke-dasharray="1,5" points="8,-32.8 8,-230.8 1085,-230.8 1085,-32.8 8,-32.8"/>
</g>
<g id="clust10" class="cluster">
<title>cluster_MiscelaneusModule_exports</title>
<polygon fill="none" stroke="black" points="16,-170.8 16,-222.8 1077,-222.8 1077,-170.8 16,-170.8"/>
</g>
<g id="clust2" class="cluster">
<title>cluster_MiscelaneusModule_declarations</title>
<polygon fill="none" stroke="black" points="29,-40.8 29,-92.8 1069,-92.8 1069,-40.8 29,-40.8"/>
</g>
<!-- AvatarPickerComponent -->
<g id="node1" class="node">
<title>AvatarPickerComponent</title>
<polygon fill="#ffffb3" stroke="black" points="1060.69,-84.8 905.31,-84.8 905.31,-48.8 1060.69,-48.8 1060.69,-84.8"/>
<text text-anchor="middle" x="983" y="-62.6" font-family="Times,serif" font-size="14.00">AvatarPickerComponent</text>
</g>
<!-- MiscelaneusModule -->
<g id="node7" class="node">
<title>MiscelaneusModule</title>
<polygon fill="#8dd3c7" stroke="black" points="527.53,-149.8 524.53,-153.8 503.53,-153.8 500.53,-149.8 398.47,-149.8 398.47,-113.8 527.53,-113.8 527.53,-149.8"/>
<text text-anchor="middle" x="463" y="-127.6" font-family="Times,serif" font-size="14.00">MiscelaneusModule</text>
</g>
<!-- AvatarPickerComponent&#45;&gt;MiscelaneusModule -->
<g id="edge1" class="edge">
<title>AvatarPickerComponent&#45;&gt;MiscelaneusModule</title>
<path fill="none" stroke="black" d="M1010.61,-85.02C1010.61,-103.63 1010.61,-129.8 1010.61,-129.8 1010.61,-129.8 537.7,-129.8 537.7,-129.8"/>
<polygon fill="black" stroke="black" points="537.7,-126.3 527.7,-129.8 537.7,-133.3 537.7,-126.3"/>
</g>
<!-- CommentsBoxComponent -->
<g id="node2" class="node">
<title>CommentsBoxComponent</title>
<polygon fill="#ffffb3" stroke="black" points="887.84,-84.8 722.16,-84.8 722.16,-48.8 887.84,-48.8 887.84,-84.8"/>
<text text-anchor="middle" x="805" y="-62.6" font-family="Times,serif" font-size="14.00">CommentsBoxComponent</text>
</g>
<!-- CommentsBoxComponent&#45;&gt;MiscelaneusModule -->
<g id="edge2" class="edge">
<title>CommentsBoxComponent&#45;&gt;MiscelaneusModule</title>
<path fill="none" stroke="black" d="M832.97,-84.83C832.97,-101.86 832.97,-124.8 832.97,-124.8 832.97,-124.8 537.87,-124.8 537.87,-124.8"/>
<polygon fill="black" stroke="black" points="537.87,-121.3 527.87,-124.8 537.87,-128.3 537.87,-121.3"/>
</g>
<!-- PhoneDialogComponent -->
<g id="node3" class="node">
<title>PhoneDialogComponent</title>
<polygon fill="#ffffb3" stroke="black" points="704.44,-84.8 549.56,-84.8 549.56,-48.8 704.44,-48.8 704.44,-84.8"/>
<text text-anchor="middle" x="627" y="-62.6" font-family="Times,serif" font-size="14.00">PhoneDialogComponent</text>
</g>
<!-- PhoneDialogComponent&#45;&gt;MiscelaneusModule -->
<g id="edge3" class="edge">
<title>PhoneDialogComponent&#45;&gt;MiscelaneusModule</title>
<path fill="none" stroke="black" d="M652.74,-85.04C652.74,-100.37 652.74,-119.8 652.74,-119.8 652.74,-119.8 537.77,-119.8 537.77,-119.8"/>
<polygon fill="black" stroke="black" points="537.77,-116.3 527.77,-119.8 537.77,-123.3 537.77,-116.3"/>
</g>
<!-- PhoneInputComponent -->
<g id="node4" class="node">
<title>PhoneInputComponent</title>
<polygon fill="#ffffb3" stroke="black" points="531.88,-84.8 386.12,-84.8 386.12,-48.8 531.88,-48.8 531.88,-84.8"/>
<text text-anchor="middle" x="459" y="-62.6" font-family="Times,serif" font-size="14.00">PhoneInputComponent</text>
</g>
<!-- PhoneInputComponent&#45;&gt;MiscelaneusModule -->
<g id="edge4" class="edge">
<title>PhoneInputComponent&#45;&gt;MiscelaneusModule</title>
<path fill="none" stroke="black" d="M463,-84.91C463,-84.91 463,-103.79 463,-103.79"/>
<polygon fill="black" stroke="black" points="459.5,-103.79 463,-113.79 466.5,-103.79 459.5,-103.79"/>
</g>
<!-- PicturePickerComponent -->
<g id="node5" class="node">
<title>PicturePickerComponent</title>
<polygon fill="#ffffb3" stroke="black" points="368.25,-84.8 211.75,-84.8 211.75,-48.8 368.25,-48.8 368.25,-84.8"/>
<text text-anchor="middle" x="290" y="-62.6" font-family="Times,serif" font-size="14.00">PicturePickerComponent</text>
</g>
<!-- PicturePickerComponent&#45;&gt;MiscelaneusModule -->
<g id="edge5" class="edge">
<title>PicturePickerComponent&#45;&gt;MiscelaneusModule</title>
<path fill="none" stroke="black" d="M311.96,-84.81C311.96,-100.85 311.96,-121.8 311.96,-121.8 311.96,-121.8 388.07,-121.8 388.07,-121.8"/>
<polygon fill="black" stroke="black" points="388.07,-125.3 398.07,-121.8 388.07,-118.3 388.07,-125.3"/>
</g>
<!-- VideoRibbonComponent -->
<g id="node6" class="node">
<title>VideoRibbonComponent</title>
<polygon fill="#ffffb3" stroke="black" points="193.27,-84.8 36.73,-84.8 36.73,-48.8 193.27,-48.8 193.27,-84.8"/>
<text text-anchor="middle" x="115" y="-62.6" font-family="Times,serif" font-size="14.00">VideoRibbonComponent</text>
</g>
<!-- VideoRibbonComponent&#45;&gt;MiscelaneusModule -->
<g id="edge6" class="edge">
<title>VideoRibbonComponent&#45;&gt;MiscelaneusModule</title>
<path fill="none" stroke="black" d="M188.76,-85.07C188.76,-103.36 188.76,-128.8 188.76,-128.8 188.76,-128.8 388.36,-128.8 388.36,-128.8"/>
<polygon fill="black" stroke="black" points="388.36,-132.3 398.36,-128.8 388.36,-125.3 388.36,-132.3"/>
</g>
<!-- AvatarPickerComponent  -->
<g id="node8" class="node">
<title>AvatarPickerComponent </title>
<polygon fill="#fb8072" stroke="black" points="1069.19,-214.8 910.81,-214.8 910.81,-178.8 1069.19,-178.8 1069.19,-214.8"/>
<text text-anchor="middle" x="990" y="-192.6" font-family="Times,serif" font-size="14.00">AvatarPickerComponent </text>
</g>
<!-- MiscelaneusModule&#45;&gt;AvatarPickerComponent  -->
<g id="edge7" class="edge">
<title>MiscelaneusModule&#45;&gt;AvatarPickerComponent </title>
<path fill="none" stroke="black" stroke-dasharray="5,2" d="M527.55,-134.8C662.19,-134.8 960.64,-134.8 960.64,-134.8 960.64,-134.8 960.64,-168.53 960.64,-168.53"/>
<polygon fill="black" stroke="black" points="957.14,-168.53 960.64,-178.53 964.14,-168.53 957.14,-168.53"/>
</g>
<!-- CommentsBoxComponent  -->
<g id="node9" class="node">
<title>CommentsBoxComponent </title>
<polygon fill="#fb8072" stroke="black" points="892.34,-214.8 723.66,-214.8 723.66,-178.8 892.34,-178.8 892.34,-214.8"/>
<text text-anchor="middle" x="808" y="-192.6" font-family="Times,serif" font-size="14.00">CommentsBoxComponent </text>
</g>
<!-- MiscelaneusModule&#45;&gt;CommentsBoxComponent  -->
<g id="edge8" class="edge">
<title>MiscelaneusModule&#45;&gt;CommentsBoxComponent </title>
<path fill="none" stroke="black" stroke-dasharray="5,2" d="M527.56,-139.8C619.8,-139.8 778.28,-139.8 778.28,-139.8 778.28,-139.8 778.28,-168.76 778.28,-168.76"/>
<polygon fill="black" stroke="black" points="774.78,-168.76 778.28,-178.76 781.78,-168.76 774.78,-168.76"/>
</g>
<!-- PhoneDialogComponent  -->
<g id="node10" class="node">
<title>PhoneDialogComponent </title>
<polygon fill="#fb8072" stroke="black" points="705.93,-214.8 548.07,-214.8 548.07,-178.8 705.93,-178.8 705.93,-214.8"/>
<text text-anchor="middle" x="627" y="-192.6" font-family="Times,serif" font-size="14.00">PhoneDialogComponent </text>
</g>
<!-- MiscelaneusModule&#45;&gt;PhoneDialogComponent  -->
<g id="edge9" class="edge">
<title>MiscelaneusModule&#45;&gt;PhoneDialogComponent </title>
<path fill="none" stroke="black" stroke-dasharray="5,2" d="M527.68,-144.8C563.66,-144.8 601.26,-144.8 601.26,-144.8 601.26,-144.8 601.26,-168.61 601.26,-168.61"/>
<polygon fill="black" stroke="black" points="597.76,-168.61 601.26,-178.61 604.76,-168.61 597.76,-168.61"/>
</g>
<!-- PhoneInputComponent  -->
<g id="node11" class="node">
<title>PhoneInputComponent </title>
<polygon fill="#fb8072" stroke="black" points="529.88,-214.8 380.12,-214.8 380.12,-178.8 529.88,-178.8 529.88,-214.8"/>
<text text-anchor="middle" x="455" y="-192.6" font-family="Times,serif" font-size="14.00">PhoneInputComponent </text>
</g>
<!-- MiscelaneusModule&#45;&gt;PhoneInputComponent  -->
<g id="edge10" class="edge">
<title>MiscelaneusModule&#45;&gt;PhoneInputComponent </title>
<path fill="none" stroke="black" stroke-dasharray="5,2" d="M463,-149.91C463,-149.91 463,-168.79 463,-168.79"/>
<polygon fill="black" stroke="black" points="459.5,-168.79 463,-178.79 466.5,-168.79 459.5,-168.79"/>
</g>
<!-- PicturePickerComponent  -->
<g id="node12" class="node">
<title>PicturePickerComponent </title>
<polygon fill="#fb8072" stroke="black" points="362.25,-214.8 201.75,-214.8 201.75,-178.8 362.25,-178.8 362.25,-214.8"/>
<text text-anchor="middle" x="282" y="-192.6" font-family="Times,serif" font-size="14.00">PicturePickerComponent </text>
</g>
<!-- MiscelaneusModule&#45;&gt;PicturePickerComponent  -->
<g id="edge11" class="edge">
<title>MiscelaneusModule&#45;&gt;PicturePickerComponent </title>
<path fill="none" stroke="black" stroke-dasharray="5,2" d="M398.23,-142.8C339.41,-142.8 261.79,-142.8 261.79,-142.8 261.79,-142.8 261.79,-168.52 261.79,-168.52"/>
<polygon fill="black" stroke="black" points="258.29,-168.52 261.79,-178.52 265.29,-168.52 258.29,-168.52"/>
</g>
<!-- VideoRibbonComponent  -->
<g id="node13" class="node">
<title>VideoRibbonComponent </title>
<polygon fill="#fb8072" stroke="black" points="184.27,-214.8 23.73,-214.8 23.73,-178.8 184.27,-178.8 184.27,-214.8"/>
<text text-anchor="middle" x="104" y="-192.6" font-family="Times,serif" font-size="14.00">VideoRibbonComponent </text>
</g>
<!-- MiscelaneusModule&#45;&gt;VideoRibbonComponent  -->
<g id="edge12" class="edge">
<title>MiscelaneusModule&#45;&gt;VideoRibbonComponent </title>
<path fill="none" stroke="black" stroke-dasharray="5,2" d="M398.32,-135.8C296.52,-135.8 110.38,-135.8 110.38,-135.8 110.38,-135.8 110.38,-168.5 110.38,-168.5"/>
<polygon fill="black" stroke="black" points="106.88,-168.5 110.38,-178.5 113.88,-168.5 106.88,-168.5"/>
</g>
</g>
</svg>
