<?xml version="1.0" encoding="UTF-8" standalone="no"?>
<!DOCTYPE svg PUBLIC "-//W3C//DTD SVG 1.1//EN"
 "http://www.w3.org/Graphics/SVG/1.1/DTD/svg11.dtd">
<!-- Generated by graphviz version 5.0.0 (20220707.1540)
 -->
<!-- Title: dependencies Pages: 1 -->
<svg width="1320pt" height="247pt"
 viewBox="0.00 0.00 1320.00 246.80" xmlns="http://www.w3.org/2000/svg" xmlns:xlink="http://www.w3.org/1999/xlink">
<g id="graph0" class="graph" transform="scale(1 1) rotate(0) translate(4 242.8)">
<title>dependencies</title>
<polygon fill="white" stroke="transparent" points="-4,4 -4,-242.8 1316,-242.8 1316,4 -4,4"/>
<text text-anchor="middle" x="656" y="-8.2" font-family="sans-serif" font-size="14.00">dependencies</text>
<g id="clust1" class="cluster">
<title>cluster_StoreModule</title>
<polygon fill="none" stroke="black" stroke-dasharray="1,5" points="8,-32.8 8,-230.8 1304,-230.8 1304,-32.8 8,-32.8"/>
</g>
<g id="clust2" class="cluster">
<title>cluster_StoreModule_declarations</title>
<polygon fill="none" stroke="black" points="287,-40.8 287,-92.8 1296,-92.8 1296,-40.8 287,-40.8"/>
</g>
<g id="clust10" class="cluster">
<title>cluster_StoreModule_exports</title>
<polygon fill="none" stroke="black" points="101,-170.8 101,-222.8 1132,-222.8 1132,-170.8 101,-170.8"/>
</g>
<g id="clust9" class="cluster">
<title>cluster_StoreModule_imports</title>
<polygon fill="none" stroke="black" points="16,-40.8 16,-92.8 279,-92.8 279,-40.8 16,-40.8"/>
</g>
<!-- ProductCardComponent -->
<g id="node1" class="node">
<title>ProductCardComponent</title>
<polygon fill="#ffffb3" stroke="black" points="1288.1,-84.8 1135.9,-84.8 1135.9,-48.8 1288.1,-48.8 1288.1,-84.8"/>
<text text-anchor="middle" x="1212" y="-62.6" font-family="Times,serif" font-size="14.00">ProductCardComponent</text>
</g>
<!-- StoreModule -->
<g id="node7" class="node">
<title>StoreModule</title>
<polygon fill="#8dd3c7" stroke="black" points="635.6,-149.8 632.6,-153.8 611.6,-153.8 608.6,-149.8 546.4,-149.8 546.4,-113.8 635.6,-113.8 635.6,-149.8"/>
<text text-anchor="middle" x="591" y="-127.6" font-family="Times,serif" font-size="14.00">StoreModule</text>
</g>
<!-- ProductCardComponent&#45;&gt;StoreModule -->
<g id="edge1" class="edge">
<title>ProductCardComponent&#45;&gt;StoreModule</title>
<path fill="none" stroke="black" d="M1212,-84.91C1212,-104.14 1212,-131.8 1212,-131.8 1212,-131.8 645.66,-131.8 645.66,-131.8"/>
<polygon fill="black" stroke="black" points="645.66,-128.3 635.66,-131.8 645.66,-135.3 645.66,-128.3"/>
</g>
<!-- ProductsRibbonComponent -->
<g id="node2" class="node">
<title>ProductsRibbonComponent</title>
<polygon fill="#ffffb3" stroke="black" points="1117.56,-84.8 946.44,-84.8 946.44,-48.8 1117.56,-48.8 1117.56,-84.8"/>
<text text-anchor="middle" x="1032" y="-62.6" font-family="Times,serif" font-size="14.00">ProductsRibbonComponent</text>
</g>
<!-- ProductsRibbonComponent&#45;&gt;StoreModule -->
<g id="edge2" class="edge">
<title>ProductsRibbonComponent&#45;&gt;StoreModule</title>
<path fill="none" stroke="black" d="M959.37,-84.82C959.37,-102.17 959.37,-125.8 959.37,-125.8 959.37,-125.8 645.8,-125.8 645.8,-125.8"/>
<polygon fill="black" stroke="black" points="645.8,-122.3 635.8,-125.8 645.8,-129.3 645.8,-122.3"/>
</g>
<!-- ProductsViewComponent -->
<g id="node3" class="node">
<title>ProductsViewComponent</title>
<polygon fill="#ffffb3" stroke="black" points="928.16,-84.8 767.84,-84.8 767.84,-48.8 928.16,-48.8 928.16,-84.8"/>
<text text-anchor="middle" x="848" y="-62.6" font-family="Times,serif" font-size="14.00">ProductsViewComponent</text>
</g>
<!-- ProductsViewComponent&#45;&gt;StoreModule -->
<g id="edge3" class="edge">
<title>ProductsViewComponent&#45;&gt;StoreModule</title>
<path fill="none" stroke="black" d="M771.57,-85.04C771.57,-100.37 771.57,-119.8 771.57,-119.8 771.57,-119.8 645.64,-119.8 645.64,-119.8"/>
<polygon fill="black" stroke="black" points="645.64,-116.3 635.64,-119.8 645.64,-123.3 645.64,-116.3"/>
</g>
<!-- PurchaseComponent -->
<g id="node4" class="node">
<title>PurchaseComponent</title>
<polygon fill="#ffffb3" stroke="black" points="749.87,-84.8 618.13,-84.8 618.13,-48.8 749.87,-48.8 749.87,-84.8"/>
<text text-anchor="middle" x="684" y="-62.6" font-family="Times,serif" font-size="14.00">PurchaseComponent</text>
</g>
<!-- PurchaseComponent&#45;&gt;StoreModule -->
<g id="edge4" class="edge">
<title>PurchaseComponent&#45;&gt;StoreModule</title>
<path fill="none" stroke="black" d="M626.81,-84.91C626.81,-84.91 626.81,-103.79 626.81,-103.79"/>
<polygon fill="black" stroke="black" points="623.31,-103.79 626.81,-113.79 630.31,-103.79 623.31,-103.79"/>
</g>
<!-- PurchaseContentComponent -->
<g id="node5" class="node">
<title>PurchaseContentComponent</title>
<polygon fill="#ffffb3" stroke="black" points="600.2,-84.8 423.8,-84.8 423.8,-48.8 600.2,-48.8 600.2,-84.8"/>
<text text-anchor="middle" x="512" y="-62.6" font-family="Times,serif" font-size="14.00">PurchaseContentComponent</text>
</g>
<!-- PurchaseContentComponent&#45;&gt;StoreModule -->
<g id="edge5" class="edge">
<title>PurchaseContentComponent&#45;&gt;StoreModule</title>
<path fill="none" stroke="black" d="M573.27,-84.91C573.27,-84.91 573.27,-103.79 573.27,-103.79"/>
<polygon fill="black" stroke="black" points="569.77,-103.79 573.27,-113.79 576.77,-103.79 569.77,-103.79"/>
</g>
<!-- StoreComponent -->
<g id="node6" class="node">
<title>StoreComponent</title>
<polygon fill="#ffffb3" stroke="black" points="405.38,-84.8 294.62,-84.8 294.62,-48.8 405.38,-48.8 405.38,-84.8"/>
<text text-anchor="middle" x="350" y="-62.6" font-family="Times,serif" font-size="14.00">StoreComponent</text>
</g>
<!-- StoreComponent&#45;&gt;StoreModule -->
<g id="edge6" class="edge">
<title>StoreComponent&#45;&gt;StoreModule</title>
<path fill="none" stroke="black" d="M350,-85.04C350,-100.37 350,-119.8 350,-119.8 350,-119.8 536.23,-119.8 536.23,-119.8"/>
<polygon fill="black" stroke="black" points="536.23,-123.3 546.23,-119.8 536.23,-116.3 536.23,-123.3"/>
</g>
<!-- ProductCardComponent  -->
<g id="node10" class="node">
<title>ProductCardComponent </title>
<polygon fill="#fb8072" stroke="black" points="1123.6,-214.8 968.4,-214.8 968.4,-178.8 1123.6,-178.8 1123.6,-214.8"/>
<text text-anchor="middle" x="1046" y="-192.6" font-family="Times,serif" font-size="14.00">ProductCardComponent </text>
</g>
<!-- StoreModule&#45;&gt;ProductCardComponent  -->
<g id="edge9" class="edge">
<title>StoreModule&#45;&gt;ProductCardComponent </title>
<path fill="none" stroke="black" stroke-dasharray="5,2" d="M635.58,-137.8C749.61,-137.8 1042.99,-137.8 1042.99,-137.8 1042.99,-137.8 1042.99,-168.78 1042.99,-168.78"/>
<polygon fill="black" stroke="black" points="1039.49,-168.78 1042.99,-178.78 1046.49,-168.78 1039.49,-168.78"/>
</g>
<!-- ProductsRibbonComponent  -->
<g id="node11" class="node">
<title>ProductsRibbonComponent </title>
<polygon fill="#fb8072" stroke="black" points="950.56,-214.8 775.44,-214.8 775.44,-178.8 950.56,-178.8 950.56,-214.8"/>
<text text-anchor="middle" x="863" y="-192.6" font-family="Times,serif" font-size="14.00">ProductsRibbonComponent </text>
</g>
<!-- StoreModule&#45;&gt;ProductsRibbonComponent  -->
<g id="edge10" class="edge">
<title>StoreModule&#45;&gt;ProductsRibbonComponent </title>
<path fill="none" stroke="black" stroke-dasharray="5,2" d="M635.55,-143.8C710.07,-143.8 851.9,-143.8 851.9,-143.8 851.9,-143.8 851.9,-168.56 851.9,-168.56"/>
<polygon fill="black" stroke="black" points="848.4,-168.56 851.9,-178.56 855.4,-168.56 848.4,-168.56"/>
</g>
<!-- ProductsViewComponent  -->
<g id="node12" class="node">
<title>ProductsViewComponent </title>
<polygon fill="#fb8072" stroke="black" points="757.16,-214.8 592.84,-214.8 592.84,-178.8 757.16,-178.8 757.16,-214.8"/>
<text text-anchor="middle" x="675" y="-192.6" font-family="Times,serif" font-size="14.00">ProductsViewComponent </text>
</g>
<!-- StoreModule&#45;&gt;ProductsViewComponent  -->
<g id="edge11" class="edge">
<title>StoreModule&#45;&gt;ProductsViewComponent </title>
<path fill="none" stroke="black" stroke-dasharray="5,2" d="M614.24,-149.91C614.24,-149.91 614.24,-168.79 614.24,-168.79"/>
<polygon fill="black" stroke="black" points="610.74,-168.79 614.24,-178.79 617.74,-168.79 610.74,-168.79"/>
</g>
<!-- PurchaseComponent  -->
<g id="node13" class="node">
<title>PurchaseComponent </title>
<polygon fill="#fb8072" stroke="black" points="574.87,-214.8 439.13,-214.8 439.13,-178.8 574.87,-178.8 574.87,-214.8"/>
<text text-anchor="middle" x="507" y="-192.6" font-family="Times,serif" font-size="14.00">PurchaseComponent </text>
</g>
<!-- StoreModule&#45;&gt;PurchaseComponent  -->
<g id="edge12" class="edge">
<title>StoreModule&#45;&gt;PurchaseComponent </title>
<path fill="none" stroke="black" stroke-dasharray="5,2" d="M560.57,-149.91C560.57,-149.91 560.57,-168.79 560.57,-168.79"/>
<polygon fill="black" stroke="black" points="557.07,-168.79 560.57,-178.79 564.07,-168.79 557.07,-168.79"/>
</g>
<!-- PurchaseContentComponent  -->
<g id="node14" class="node">
<title>PurchaseContentComponent </title>
<polygon fill="#fb8072" stroke="black" points="420.7,-214.8 241.3,-214.8 241.3,-178.8 420.7,-178.8 420.7,-214.8"/>
<text text-anchor="middle" x="331" y="-192.6" font-family="Times,serif" font-size="14.00">PurchaseContentComponent </text>
</g>
<!-- StoreModule&#45;&gt;PurchaseContentComponent  -->
<g id="edge13" class="edge">
<title>StoreModule&#45;&gt;PurchaseContentComponent </title>
<path fill="none" stroke="black" stroke-dasharray="5,2" d="M546.12,-143.8C493.43,-143.8 413.15,-143.8 413.15,-143.8 413.15,-143.8 413.15,-168.56 413.15,-168.56"/>
<polygon fill="black" stroke="black" points="409.65,-168.56 413.15,-178.56 416.65,-168.56 409.65,-168.56"/>
</g>
<!-- StoreComponent  -->
<g id="node15" class="node">
<title>StoreComponent </title>
<polygon fill="#fb8072" stroke="black" points="223.38,-214.8 108.62,-214.8 108.62,-178.8 223.38,-178.8 223.38,-214.8"/>
<text text-anchor="middle" x="166" y="-192.6" font-family="Times,serif" font-size="14.00">StoreComponent </text>
</g>
<!-- StoreModule&#45;&gt;StoreComponent  -->
<g id="edge14" class="edge">
<title>StoreModule&#45;&gt;StoreComponent </title>
<path fill="none" stroke="black" stroke-dasharray="5,2" d="M546.22,-137.8C443.03,-137.8 197.29,-137.8 197.29,-137.8 197.29,-137.8 197.29,-168.78 197.29,-168.78"/>
<polygon fill="black" stroke="black" points="193.79,-168.78 197.29,-178.78 200.79,-168.78 193.79,-168.78"/>
</g>
<!-- LayoutModule -->
<g id="node8" class="node">
<title>LayoutModule</title>
<polygon fill="#8dd3c7" stroke="black" points="270.71,-84.8 267.71,-88.8 246.71,-88.8 243.71,-84.8 171.29,-84.8 171.29,-48.8 270.71,-48.8 270.71,-84.8"/>
<text text-anchor="middle" x="221" y="-62.6" font-family="Times,serif" font-size="14.00">LayoutModule</text>
</g>
<!-- LayoutModule&#45;&gt;StoreModule -->
<g id="edge7" class="edge">
<title>LayoutModule&#45;&gt;StoreModule</title>
<path fill="none" stroke="black" d="M255.88,-84.82C255.88,-102.17 255.88,-125.8 255.88,-125.8 255.88,-125.8 536.15,-125.8 536.15,-125.8"/>
<polygon fill="black" stroke="black" points="536.15,-129.3 546.15,-125.8 536.15,-122.3 536.15,-129.3"/>
</g>
<!-- MiscelaneusModule -->
<g id="node9" class="node">
<title>MiscelaneusModule</title>
<polygon fill="#8dd3c7" stroke="black" points="153.53,-84.8 150.53,-88.8 129.53,-88.8 126.53,-84.8 24.47,-84.8 24.47,-48.8 153.53,-48.8 153.53,-84.8"/>
<text text-anchor="middle" x="89" y="-62.6" font-family="Times,serif" font-size="14.00">MiscelaneusModule</text>
</g>
<!-- MiscelaneusModule&#45;&gt;StoreModule -->
<g id="edge8" class="edge">
<title>MiscelaneusModule&#45;&gt;StoreModule</title>
<path fill="none" stroke="black" d="M131.29,-84.91C131.29,-104.14 131.29,-131.8 131.29,-131.8 131.29,-131.8 536.08,-131.8 536.08,-131.8"/>
<polygon fill="black" stroke="black" points="536.08,-135.3 546.08,-131.8 536.08,-128.3 536.08,-135.3"/>
</g>
</g>
</svg>
