<?xml version="1.0" encoding="UTF-8" standalone="no"?>
<!DOCTYPE svg PUBLIC "-//W3C//DTD SVG 1.1//EN"
 "http://www.w3.org/Graphics/SVG/1.1/DTD/svg11.dtd">
<!-- Generated by graphviz version 5.0.0 (20220707.1540)
 -->
<!-- Title: dependencies Pages: 1 -->
<svg width="489pt" height="247pt"
 viewBox="0.00 0.00 489.00 246.80" xmlns="http://www.w3.org/2000/svg" xmlns:xlink="http://www.w3.org/1999/xlink">
<g id="graph0" class="graph" transform="scale(1 1) rotate(0) translate(4 242.8)">
<title>dependencies</title>
<polygon fill="white" stroke="transparent" points="-4,4 -4,-242.8 485,-242.8 485,4 -4,4"/>
<text text-anchor="middle" x="240.5" y="-8.2" font-family="sans-serif" font-size="14.00">dependencies</text>
<g id="clust1" class="cluster">
<title>cluster_BlogModule</title>
<polygon fill="none" stroke="black" stroke-dasharray="1,5" points="8,-32.8 8,-230.8 473,-230.8 473,-32.8 8,-32.8"/>
</g>
<g id="clust5" class="cluster">
<title>cluster_BlogModule_imports</title>
<polygon fill="none" stroke="black" points="319,-40.8 319,-92.8 465,-92.8 465,-40.8 319,-40.8"/>
</g>
<g id="clust2" class="cluster">
<title>cluster_BlogModule_declarations</title>
<polygon fill="none" stroke="black" points="16,-40.8 16,-92.8 311,-92.8 311,-40.8 16,-40.8"/>
</g>
<g id="clust6" class="cluster">
<title>cluster_BlogModule_exports</title>
<polygon fill="none" stroke="black" points="90,-170.8 90,-222.8 392,-222.8 392,-170.8 90,-170.8"/>
</g>
<!-- BlogComponent -->
<g id="node1" class="node">
<title>BlogComponent</title>
<polygon fill="#ffffb3" stroke="black" points="303.06,-84.8 194.94,-84.8 194.94,-48.8 303.06,-48.8 303.06,-84.8"/>
<text text-anchor="middle" x="249" y="-62.6" font-family="Times,serif" font-size="14.00">BlogComponent</text>
</g>
<!-- BlogModule -->
<g id="node3" class="node">
<title>BlogModule</title>
<polygon fill="#8dd3c7" stroke="black" points="292.28,-149.8 289.28,-153.8 268.28,-153.8 265.28,-149.8 205.72,-149.8 205.72,-113.8 292.28,-113.8 292.28,-149.8"/>
<text text-anchor="middle" x="249" y="-127.6" font-family="Times,serif" font-size="14.00">BlogModule</text>
</g>
<!-- BlogComponent&#45;&gt;BlogModule -->
<g id="edge1" class="edge">
<title>BlogComponent&#45;&gt;BlogModule</title>
<path fill="none" stroke="black" d="M249,-84.91C249,-84.91 249,-103.79 249,-103.79"/>
<polygon fill="black" stroke="black" points="245.5,-103.79 249,-113.79 252.5,-103.79 245.5,-103.79"/>
</g>
<!-- BlogContentComponent -->
<g id="node2" class="node">
<title>BlogContentComponent</title>
<polygon fill="#ffffb3" stroke="black" points="176.39,-84.8 23.61,-84.8 23.61,-48.8 176.39,-48.8 176.39,-84.8"/>
<text text-anchor="middle" x="100" y="-62.6" font-family="Times,serif" font-size="14.00">BlogContentComponent</text>
</g>
<!-- BlogContentComponent&#45;&gt;BlogModule -->
<g id="edge2" class="edge">
<title>BlogContentComponent&#45;&gt;BlogModule</title>
<path fill="none" stroke="black" d="M137.12,-84.91C137.12,-104.14 137.12,-131.8 137.12,-131.8 137.12,-131.8 195.43,-131.8 195.43,-131.8"/>
<polygon fill="black" stroke="black" points="195.43,-135.3 205.43,-131.8 195.43,-128.3 195.43,-135.3"/>
</g>
<!-- BlogComponent  -->
<g id="node5" class="node">
<title>BlogComponent </title>
<polygon fill="#fb8072" stroke="black" points="384.06,-214.8 271.94,-214.8 271.94,-178.8 384.06,-178.8 384.06,-214.8"/>
<text text-anchor="middle" x="328" y="-192.6" font-family="Times,serif" font-size="14.00">BlogComponent </text>
</g>
<!-- BlogModule&#45;&gt;BlogComponent  -->
<g id="edge4" class="edge">
<title>BlogModule&#45;&gt;BlogComponent </title>
<path fill="none" stroke="black" stroke-dasharray="5,2" d="M282.18,-149.91C282.18,-149.91 282.18,-168.79 282.18,-168.79"/>
<polygon fill="black" stroke="black" points="278.68,-168.79 282.18,-178.79 285.68,-168.79 278.68,-168.79"/>
</g>
<!-- BlogContentComponent  -->
<g id="node6" class="node">
<title>BlogContentComponent </title>
<polygon fill="#fb8072" stroke="black" points="254.39,-214.8 97.61,-214.8 97.61,-178.8 254.39,-178.8 254.39,-214.8"/>
<text text-anchor="middle" x="176" y="-192.6" font-family="Times,serif" font-size="14.00">BlogContentComponent </text>
</g>
<!-- BlogModule&#45;&gt;BlogContentComponent  -->
<g id="edge5" class="edge">
<title>BlogModule&#45;&gt;BlogContentComponent </title>
<path fill="none" stroke="black" stroke-dasharray="5,2" d="M229.9,-149.91C229.9,-149.91 229.9,-168.79 229.9,-168.79"/>
<polygon fill="black" stroke="black" points="226.4,-168.79 229.9,-178.79 233.4,-168.79 226.4,-168.79"/>
</g>
<!-- MiscelaneusModule -->
<g id="node4" class="node">
<title>MiscelaneusModule</title>
<polygon fill="#8dd3c7" stroke="black" points="456.53,-84.8 453.53,-88.8 432.53,-88.8 429.53,-84.8 327.47,-84.8 327.47,-48.8 456.53,-48.8 456.53,-84.8"/>
<text text-anchor="middle" x="392" y="-62.6" font-family="Times,serif" font-size="14.00">MiscelaneusModule</text>
</g>
<!-- MiscelaneusModule&#45;&gt;BlogModule -->
<g id="edge3" class="edge">
<title>MiscelaneusModule&#45;&gt;BlogModule</title>
<path fill="none" stroke="black" d="M355.63,-84.91C355.63,-104.14 355.63,-131.8 355.63,-131.8 355.63,-131.8 302.37,-131.8 302.37,-131.8"/>
<polygon fill="black" stroke="black" points="302.37,-128.3 292.37,-131.8 302.37,-135.3 302.37,-128.3"/>
</g>
</g>
</svg>
